<?xml version="1.0" encoding="UTF-8"?>
<!DOCTYPE svg PUBLIC "-//W3C//DTD SVG 1.1//EN" "http://www.w3.org/Graphics/SVG/1.1/DTD/svg11.dtd">
<svg xmlns="http://www.w3.org/2000/svg" version="1.1" width="271px" height="186px" style="shape-rendering:geometricPrecision; text-rendering:geometricPrecision; image-rendering:optimizeQuality; fill-rule:evenodd; clip-rule:evenodd" xmlns:xlink="http://www.w3.org/1999/xlink">
<g><path style="opacity:1" fill="#fdfdfd" d="M -0.5,-0.5 C 16.1667,-0.5 32.8333,-0.5 49.5,-0.5C 46.6733,0.41884 44.34,2.08551 42.5,4.5C 37.7369,9.97822 37.2369,15.9782 41,22.5C 42.3712,24.0414 43.8712,25.3747 45.5,26.5C 45.9526,30.6928 47.1192,34.6928 49,38.5C 49.5946,37.1011 49.4279,35.7678 48.5,34.5C 49.6119,33.7348 50.2786,32.7348 50.5,31.5C 52.6099,35.5566 54.2766,39.89 55.5,44.5C 55.0814,45.6721 54.4147,46.6721 53.5,47.5C 54.9131,50.6612 56.5797,53.6612 58.5,56.5C 58.1373,57.1835 57.8039,57.8501 57.5,58.5C 52.7134,58.9905 48.0468,59.9905 43.5,61.5C 29.4259,64.3718 16.7592,70.2051 5.5,79C 3.26633,80.6379 1.933,82.8045 1.5,85.5C 0.833333,86.1667 0.166667,86.8333 -0.5,87.5C -0.5,58.1667 -0.5,28.8333 -0.5,-0.5 Z"/></g>
<g><path style="opacity:1" fill="#fdfdfd" d="M 57.5,-0.5 C 128.5,-0.5 199.5,-0.5 270.5,-0.5C 270.5,29.5 270.5,59.5 270.5,89.5C 269.745,85.6521 267.745,82.6521 264.5,80.5C 258.216,73.6795 250.549,68.8462 241.5,66C 232.068,62.5779 222.401,60.0779 212.5,58.5C 212.196,57.8501 211.863,57.1835 211.5,56.5C 214.705,51.4235 217.372,46.0901 219.5,40.5C 222.332,36.3422 223.999,31.6755 224.5,26.5C 226.973,26.9118 228.306,25.9118 228.5,23.5C 229.55,18.8862 229.717,14.2196 229,9.5C 228.617,8.94404 228.117,8.61071 227.5,8.5C 227.167,6.16667 225.833,4.83333 223.5,4.5C 223.5,3.83333 223.167,3.5 222.5,3.5C 218.95,1.32682 215.283,0.993486 211.5,2.5C 208.386,2.55481 206.052,3.88814 204.5,6.5C 203.067,8.51907 201.733,10.6857 200.5,13C 197.609,14.2742 194.942,15.7742 192.5,17.5C 192.167,17.5 191.833,17.5 191.5,17.5C 185.269,20.7748 179.603,24.7748 174.5,29.5C 168.8,33.016 163.467,37.016 158.5,41.5C 155.156,40.4925 151.823,39.4925 148.5,38.5C 145.727,37.3428 142.727,36.6761 139.5,36.5C 129.526,34.4861 119.859,35.8194 110.5,40.5C 99.5329,31.3484 87.8663,23.1818 75.5,16C 73.0912,14.2932 70.4245,13.4598 67.5,13.5C 67.5,12.5 67.5,11.5 67.5,10.5C 65.5291,5.532 62.1958,1.86533 57.5,-0.5 Z"/></g>
<g><path style="opacity:1" fill="#c6b46b" d="M 211.5,2.5 C 208.015,3.80032 207.015,6.13365 208.5,9.5C 207.833,9.5 207.167,9.5 206.5,9.5C 205.833,8.5 205.167,7.5 204.5,6.5C 206.052,3.88814 208.386,2.55481 211.5,2.5 Z"/></g>
<g><path style="opacity:1" fill="#f9e24e" d="M 211.5,2.5 C 213.833,2.5 216.167,2.5 218.5,2.5C 218.67,4.84837 219.003,7.1817 219.5,9.5C 219.014,11.3042 218.347,12.9709 217.5,14.5C 214.24,13.2262 211.24,11.5595 208.5,9.5C 207.015,6.13365 208.015,3.80032 211.5,2.5 Z"/></g>
<g><path style="opacity:1" fill="#9e8662" d="M 49.5,-0.5 C 50.1667,-0.5 50.8333,-0.5 51.5,-0.5C 51.5,0.166667 51.5,0.833333 51.5,1.5C 50.2825,2.16145 48.9492,2.82811 47.5,3.5C 48.0253,4.19238 48.6919,4.69238 49.5,5C 47.5932,6.12197 45.5932,6.95531 43.5,7.5C 43.7373,6.20895 43.404,5.20895 42.5,4.5C 44.34,2.08551 46.6733,0.41884 49.5,-0.5 Z"/></g>
<g><path style="opacity:1" fill="#674619" d="M 51.5,1.5 C 52.5983,2.60093 52.765,3.93426 52,5.5C 49.6963,7.77977 48.1963,10.4464 47.5,13.5C 50.0444,13.1043 52.2111,13.771 54,15.5C 58.0225,12.548 62.5225,10.8813 67.5,10.5C 67.5,11.5 67.5,12.5 67.5,13.5C 66.8333,13.5 66.5,13.8333 66.5,14.5C 64.5648,15.1495 62.5648,15.4828 60.5,15.5C 60.5,16.5 60.5,17.5 60.5,18.5C 59.209,18.2627 58.209,18.596 57.5,19.5C 56.1667,19.5 54.8333,19.5 53.5,19.5C 53.0181,14.6176 51.0181,13.6176 47.5,16.5C 47.1667,16.5 46.8333,16.5 46.5,16.5C 45.2652,16.7214 44.2652,17.3881 43.5,18.5C 43.1667,17.6667 42.8333,16.8333 42.5,16C 43.2156,13.2077 43.5489,10.3743 43.5,7.5C 45.5932,6.95531 47.5932,6.12197 49.5,5C 48.6919,4.69238 48.0253,4.19238 47.5,3.5C 48.9492,2.82811 50.2825,2.16145 51.5,1.5 Z"/></g>
<g><path style="opacity:1" fill="#c4a247" d="M 211.5,2.5 C 215.283,0.993486 218.95,1.32682 222.5,3.5C 222.467,7.86886 222.8,12.2022 223.5,16.5C 222.609,15.8902 221.609,15.5569 220.5,15.5C 219.791,14.596 218.791,14.2627 217.5,14.5C 218.347,12.9709 219.014,11.3042 219.5,9.5C 219.003,7.1817 218.67,4.84837 218.5,2.5C 216.167,2.5 213.833,2.5 211.5,2.5 Z"/></g>
<g><path style="opacity:1" fill="#7b6958" d="M 223.5,4.5 C 225.833,4.83333 227.167,6.16667 227.5,8.5C 227.5,9.16667 227.167,9.5 226.5,9.5C 226.095,8.45018 225.429,8.45018 224.5,9.5C 223.548,7.95467 223.215,6.28801 223.5,4.5 Z"/></g>
<g><path style="opacity:1" fill="#e1ba4a" d="M 51.5,-0.5 C 53.5,-0.5 55.5,-0.5 57.5,-0.5C 62.1958,1.86533 65.5291,5.532 67.5,10.5C 62.5225,10.8813 58.0225,12.548 54,15.5C 52.2111,13.771 50.0444,13.1043 47.5,13.5C 48.1963,10.4464 49.6963,7.77977 52,5.5C 52.765,3.93426 52.5983,2.60093 51.5,1.5C 51.5,0.833333 51.5,0.166667 51.5,-0.5 Z"/></g>
<g><path style="opacity:1" fill="#fce443" d="M 55.5,2.5 C 58.3229,3.21662 60.9896,4.21662 63.5,5.5C 63.5,6.5 63.5,7.5 63.5,8.5C 58.6233,7.58851 54.6233,8.92185 51.5,12.5C 49.3688,11.3881 49.3688,9.88806 51.5,8C 54.8762,7.69287 56.2096,5.85953 55.5,2.5 Z"/></g>
<g><path style="opacity:1" fill="#7e7256" d="M 204.5,6.5 C 205.167,7.5 205.833,8.5 206.5,9.5C 207.1,10.8999 208.1,11.8999 209.5,12.5C 207.856,12.7135 206.356,12.3802 205,11.5C 203.383,12.5358 203.216,13.7025 204.5,15C 203.552,15.4828 202.552,15.6495 201.5,15.5C 198.646,15.9239 195.979,16.9239 193.5,18.5C 192.893,18.3764 192.56,18.0431 192.5,17.5C 194.942,15.7742 197.609,14.2742 200.5,13C 201.733,10.6857 203.067,8.51907 204.5,6.5 Z"/></g>
<g><path style="opacity:1" fill="#8f6826" d="M 206.5,9.5 C 207.167,9.5 207.833,9.5 208.5,9.5C 211.24,11.5595 214.24,13.2262 217.5,14.5C 217.461,15.5832 217.127,16.5832 216.5,17.5C 214.701,18.7879 213.035,18.7879 211.5,17.5C 212.376,17.6309 213.043,17.2975 213.5,16.5C 212.133,15.16 210.8,13.8267 209.5,12.5C 208.1,11.8999 207.1,10.8999 206.5,9.5 Z"/></g>
<g><path style="opacity:1" fill="#724b20" d="M 222.5,3.5 C 223.167,3.5 223.5,3.83333 223.5,4.5C 223.215,6.28801 223.548,7.95467 224.5,9.5C 225.429,8.45018 226.095,8.45018 226.5,9.5C 226.286,11.1439 226.62,12.6439 227.5,14C 226.551,14.6172 225.718,14.4506 225,13.5C 224.768,14.7375 224.268,15.7375 223.5,16.5C 222.8,12.2022 222.467,7.86886 222.5,3.5 Z"/></g>
<g><path style="opacity:1" fill="#4f3820" d="M 209.5,12.5 C 210.8,13.8267 212.133,15.16 213.5,16.5C 213.043,17.2975 212.376,17.6309 211.5,17.5C 208.021,16.01 204.688,16.3433 201.5,18.5C 201.5,18.1667 201.5,17.8333 201.5,17.5C 201.5,16.8333 201.5,16.1667 201.5,15.5C 202.552,15.6495 203.552,15.4828 204.5,15C 203.216,13.7025 203.383,12.5358 205,11.5C 206.356,12.3802 207.856,12.7135 209.5,12.5 Z"/></g>
<g><path style="opacity:1" fill="#b88e33" d="M 227.5,8.5 C 228.117,8.61071 228.617,8.94404 229,9.5C 229.717,14.2196 229.55,18.8862 228.5,23.5C 227.542,23.9528 226.708,24.6195 226,25.5C 224.85,22.5823 224.017,19.5823 223.5,16.5C 224.268,15.7375 224.768,14.7375 225,13.5C 225.718,14.4506 226.551,14.6172 227.5,14C 226.62,12.6439 226.286,11.1439 226.5,9.5C 227.167,9.5 227.5,9.16667 227.5,8.5 Z"/></g>
<g><path style="opacity:1" fill="#aa853b" d="M 42.5,4.5 C 43.404,5.20895 43.7373,6.20895 43.5,7.5C 43.5489,10.3743 43.2156,13.2077 42.5,16C 42.8333,16.8333 43.1667,17.6667 43.5,18.5C 44.2652,17.3881 45.2652,16.7214 46.5,16.5C 45.8902,17.391 45.5569,18.391 45.5,19.5C 45.5,21.8333 45.5,24.1667 45.5,26.5C 43.8712,25.3747 42.3712,24.0414 41,22.5C 37.2369,15.9782 37.7369,9.97822 42.5,4.5 Z"/></g>
<g><path style="opacity:1" fill="#c79432" d="M 57.5,19.5 C 57.5,19.8333 57.5,20.1667 57.5,20.5C 55.901,20.2322 54.5676,20.5655 53.5,21.5C 53.1667,21.5 52.8333,21.5 52.5,21.5C 51.3998,20.4415 50.0664,19.6082 48.5,19C 49.8825,17.5391 49.5492,16.7058 47.5,16.5C 51.0181,13.6176 53.0181,14.6176 53.5,19.5C 54.8333,19.5 56.1667,19.5 57.5,19.5 Z"/></g>
<g><path style="opacity:1" fill="#351e0b" d="M 66.5,14.5 C 66.8333,15.1667 67.1667,15.8333 67.5,16.5C 66.5655,17.5676 66.2322,18.901 66.5,20.5C 65.9202,22.7488 64.5869,24.4154 62.5,25.5C 62.8174,22.4535 61.4841,20.7868 58.5,20.5C 58.1667,20.5 57.8333,20.5 57.5,20.5C 57.5,20.1667 57.5,19.8333 57.5,19.5C 58.209,18.596 59.209,18.2627 60.5,18.5C 60.5,17.5 60.5,16.5 60.5,15.5C 62.5648,15.4828 64.5648,15.1495 66.5,14.5 Z"/></g>
<g><path style="opacity:1" fill="#dc991b" d="M 217.5,14.5 C 218.791,14.2627 219.791,14.596 220.5,15.5C 219.343,17.8129 218.01,19.9795 216.5,22C 215.923,24.137 215.59,26.3037 215.5,28.5C 214.866,29.9468 213.699,30.6134 212,30.5C 210.93,30.472 210.097,30.1386 209.5,29.5C 210.609,28.71 211.942,28.21 213.5,28C 208.932,27.382 205.266,25.2154 202.5,21.5C 204.461,17.993 207.461,16.6597 211.5,17.5C 213.035,18.7879 214.701,18.7879 216.5,17.5C 217.127,16.5832 217.461,15.5832 217.5,14.5 Z"/></g>
<g><path style="opacity:1" fill="#fcfbfc" d="M 103.5,43.5 C 99.532,46.176 95.8653,49.3426 92.5,53C 85.1193,53.5071 77.7859,54.3404 70.5,55.5C 69.5041,55.5858 68.6708,55.2524 68,54.5C 62.7678,46.7023 58.6012,38.369 55.5,29.5C 56.4916,29.6716 57.1583,29.3382 57.5,28.5C 59.5652,28.047 61.2318,27.047 62.5,25.5C 64.5869,24.4154 65.9202,22.7488 66.5,20.5C 67.1174,20.3893 67.6174,20.056 68,19.5C 81.1045,25.7975 92.9378,33.7975 103.5,43.5 Z"/></g>
<g><path style="opacity:1" fill="#eadf9f" d="M 46.5,16.5 C 46.8333,16.5 47.1667,16.5 47.5,16.5C 49.5492,16.7058 49.8825,17.5391 48.5,19C 50.0664,19.6082 51.3998,20.4415 52.5,21.5C 51.8501,21.8039 51.1835,22.1373 50.5,22.5C 49.6786,25.4465 49.1786,28.4465 49,31.5C 47.7313,27.3509 47.0646,23.0176 47,18.5C 46.6174,19.056 46.1174,19.3893 45.5,19.5C 45.5569,18.391 45.8902,17.391 46.5,16.5 Z"/></g>
<g><path style="opacity:1" fill="#3f3d3b" d="M 201.5,15.5 C 201.5,16.1667 201.5,16.8333 201.5,17.5C 194.566,20.3006 187.899,23.6339 181.5,27.5C 183.056,24.8445 185.723,22.6778 189.5,21C 190.823,20.1841 191.489,19.0174 191.5,17.5C 191.833,17.5 192.167,17.5 192.5,17.5C 192.56,18.0431 192.893,18.3764 193.5,18.5C 195.979,16.9239 198.646,15.9239 201.5,15.5 Z"/></g>
<g><path style="opacity:1" fill="#e4ce99" d="M 220.5,15.5 C 221.609,15.5569 222.609,15.8902 223.5,16.5C 224.017,19.5823 224.85,22.5823 226,25.5C 226.708,24.6195 227.542,23.9528 228.5,23.5C 228.306,25.9118 226.973,26.9118 224.5,26.5C 223.504,26.4142 222.671,26.7476 222,27.5C 220.542,32.5945 219.709,32.2611 219.5,26.5C 219.785,24.712 219.452,23.0453 218.5,21.5C 217.641,23.9998 216.641,26.3331 215.5,28.5C 215.59,26.3037 215.923,24.137 216.5,22C 218.01,19.9795 219.343,17.8129 220.5,15.5 Z"/></g>
<g><path style="opacity:1" fill="#916b27" d="M 58.5,20.5 C 61.4841,20.7868 62.8174,22.4535 62.5,25.5C 61.2318,27.047 59.5652,28.047 57.5,28.5C 56.8333,28.5 56.5,28.1667 56.5,27.5C 59.4947,25.8567 60.1614,23.5233 58.5,20.5 Z"/></g>
<g><path style="opacity:1" fill="#e9bc1c" d="M 57.5,20.5 C 57.8333,20.5 58.1667,20.5 58.5,20.5C 60.1614,23.5233 59.4947,25.8567 56.5,27.5C 55.5,27.5 54.5,27.5 53.5,27.5C 53.5,25.5 53.5,23.5 53.5,21.5C 54.5676,20.5655 55.901,20.2322 57.5,20.5 Z"/></g>
<g><path style="opacity:1" fill="#fafaf9" d="M 201.5,21.5 C 202.5,25.8333 205.167,28.5 209.5,29.5C 210.097,30.1386 210.93,30.472 212,30.5C 213.699,30.6134 214.866,29.9468 215.5,28.5C 216.641,26.3331 217.641,23.9998 218.5,21.5C 219.452,23.0453 219.785,24.712 219.5,26.5C 217.935,28.5093 216.935,30.8427 216.5,33.5C 214.658,35.1898 213.325,37.1898 212.5,39.5C 212.607,37.6214 212.107,37.2881 211,38.5C 208,43.8333 205,49.1667 202,54.5C 201.329,55.2524 200.496,55.5858 199.5,55.5C 193.116,55.2435 186.782,54.5768 180.5,53.5C 178.143,53.6633 175.81,53.4966 173.5,53C 170.31,50.6356 167.31,48.1356 164.5,45.5C 174.885,35.3665 186.718,27.0331 200,20.5C 200.383,21.056 200.883,21.3893 201.5,21.5 Z"/></g>
<g><path style="opacity:1" fill="#696967" d="M 191.5,17.5 C 191.489,19.0174 190.823,20.1841 189.5,21C 185.723,22.6778 183.056,24.8445 181.5,27.5C 181.167,28.5 180.5,29.1667 179.5,29.5C 178.001,28.506 176.334,28.506 174.5,29.5C 179.603,24.7748 185.269,20.7748 191.5,17.5 Z"/></g>
<g><path style="opacity:1" fill="#acabab" d="M 67.5,16.5 C 82.028,22.9267 95.028,31.5934 106.5,42.5C 105.675,43.3857 104.675,43.719 103.5,43.5C 92.9378,33.7975 81.1045,25.7975 68,19.5C 67.6174,20.056 67.1174,20.3893 66.5,20.5C 66.2322,18.901 66.5655,17.5676 67.5,16.5 Z"/></g>
<g><path style="opacity:1" fill="#ae7a19" d="M 211.5,17.5 C 207.461,16.6597 204.461,17.993 202.5,21.5C 205.266,25.2154 208.932,27.382 213.5,28C 211.942,28.21 210.609,28.71 209.5,29.5C 205.167,28.5 202.5,25.8333 201.5,21.5C 201.5,20.5 201.5,19.5 201.5,18.5C 204.688,16.3433 208.021,16.01 211.5,17.5 Z"/></g>
<g><path style="opacity:1" fill="#ddd4c0" d="M 52.5,21.5 C 52.8333,21.5 53.1667,21.5 53.5,21.5C 53.5,23.5 53.5,25.5 53.5,27.5C 54.5,27.5 55.5,27.5 56.5,27.5C 56.5,28.1667 56.8333,28.5 57.5,28.5C 57.1583,29.3382 56.4916,29.6716 55.5,29.5C 53.2188,29.0773 51.5521,29.744 50.5,31.5C 50.2786,32.7348 49.6119,33.7348 48.5,34.5C 49.4279,35.7678 49.5946,37.1011 49,38.5C 47.1192,34.6928 45.9526,30.6928 45.5,26.5C 45.5,24.1667 45.5,21.8333 45.5,19.5C 46.1174,19.3893 46.6174,19.056 47,18.5C 47.0646,23.0176 47.7313,27.3509 49,31.5C 49.1786,28.4465 49.6786,25.4465 50.5,22.5C 51.1835,22.1373 51.8501,21.8039 52.5,21.5 Z"/></g>
<g><path style="opacity:1" fill="#666564" d="M 174.5,29.5 C 173.972,30.7206 173.305,31.8873 172.5,33C 167.927,35.1054 163.927,38.1054 160.5,42C 159.563,42.6917 158.897,42.525 158.5,41.5C 163.467,37.016 168.8,33.016 174.5,29.5 Z"/></g>
<g><path style="opacity:1" fill="#b5b3a3" d="M 219.5,26.5 C 219.709,32.2611 220.542,32.5945 222,27.5C 222.671,26.7476 223.504,26.4142 224.5,26.5C 223.999,31.6755 222.332,36.3422 219.5,40.5C 220.347,37.8405 220.847,35.1738 221,32.5C 219.97,34.3464 218.804,36.0131 217.5,37.5C 217.768,35.901 217.434,34.5676 216.5,33.5C 216.935,30.8427 217.935,28.5093 219.5,26.5 Z"/></g>
<g><path style="opacity:1" fill="#cbcac9" d="M 201.5,17.5 C 201.5,17.8333 201.5,18.1667 201.5,18.5C 201.5,19.5 201.5,20.5 201.5,21.5C 200.883,21.3893 200.383,21.056 200,20.5C 186.718,27.0331 174.885,35.3665 164.5,45.5C 163.357,45.0919 162.357,44.4252 161.5,43.5C 167.233,38.4273 173.233,33.7607 179.5,29.5C 180.5,29.1667 181.167,28.5 181.5,27.5C 187.899,23.6339 194.566,20.3006 201.5,17.5 Z"/></g>
<g><path style="opacity:1" fill="#76767a" d="M 216.5,33.5 C 217.434,34.5676 217.768,35.901 217.5,37.5C 216.579,41.299 214.912,44.6323 212.5,47.5C 210.863,49.3162 209.363,51.3162 208,53.5C 207.5,52.5 207,51.5 206.5,50.5C 208.779,46.9392 210.779,43.2726 212.5,39.5C 213.325,37.1898 214.658,35.1898 216.5,33.5 Z"/></g>
<g><path style="opacity:1" fill="#323a44" d="M 179.5,29.5 C 173.233,33.7607 167.233,38.4273 161.5,43.5C 162.357,44.4252 163.357,45.0919 164.5,45.5C 167.31,48.1356 170.31,50.6356 173.5,53C 175.81,53.4966 178.143,53.6633 180.5,53.5C 179.737,54.2679 178.737,54.7679 177.5,55C 178.167,55.3333 178.833,55.6667 179.5,56C 178.376,56.2492 177.376,56.7492 176.5,57.5C 176.624,58.1067 176.957,58.44 177.5,58.5C 178.5,59.8333 179.5,61.1667 180.5,62.5C 178.795,63.0881 177.128,63.4214 175.5,63.5C 177.466,66.549 177.966,69.8823 177,73.5C 173.117,69.5367 169.451,69.8701 166,74.5C 165.506,76.1341 165.34,77.8008 165.5,79.5C 162.713,81.9763 159.713,81.9763 156.5,79.5C 158.568,75.7923 160.568,72.1257 162.5,68.5C 161.5,68.5 160.5,68.5 159.5,68.5C 158.131,64.8132 155.465,63.1465 151.5,63.5C 151.5,62.1667 151.5,60.8333 151.5,59.5C 148.784,59.3215 146.117,58.8215 143.5,58C 141.534,54.081 138.867,50.7477 135.5,48C 132.007,47.0581 128.674,45.7248 125.5,44C 126.949,42.883 128.616,42.2163 130.5,42C 136.167,41.3333 141.833,41.3333 147.5,42C 149.547,43.0726 151.547,44.2393 153.5,45.5C 155.214,44.3915 155.881,45.0582 155.5,47.5C 157.288,47.7852 158.955,47.4519 160.5,46.5C 156.628,44.0646 152.628,41.8979 148.5,40C 147.262,39.31 147.262,38.81 148.5,38.5C 151.823,39.4925 155.156,40.4925 158.5,41.5C 158.897,42.525 159.563,42.6917 160.5,42C 163.927,38.1054 167.927,35.1054 172.5,33C 173.305,31.8873 173.972,30.7206 174.5,29.5C 176.334,28.506 178.001,28.506 179.5,29.5 Z"/></g>
<g><path style="opacity:1" fill="#5c5d5d" d="M 180.5,53.5 C 186.782,54.5768 193.116,55.2435 199.5,55.5C 200.954,57.2633 200.62,58.5967 198.5,59.5C 192.819,59.022 187.152,58.3553 181.5,57.5C 179.955,57.5108 178.622,57.8442 177.5,58.5C 176.957,58.44 176.624,58.1067 176.5,57.5C 177.376,56.7492 178.376,56.2492 179.5,56C 178.833,55.6667 178.167,55.3333 177.5,55C 178.737,54.7679 179.737,54.2679 180.5,53.5 Z"/></g>
<g><path style="opacity:1" fill="#a4a4a5" d="M 212.5,39.5 C 210.779,43.2726 208.779,46.9392 206.5,50.5C 207,51.5 207.5,52.5 208,53.5C 209.363,51.3162 210.863,49.3162 212.5,47.5C 207.937,56.9591 202.604,65.9591 196.5,74.5C 196.389,73.8826 196.056,73.3826 195.5,73C 198.724,68.3806 201.224,63.5473 203,58.5C 198.318,63.5188 193.985,68.8521 190,74.5C 189.31,75.7383 188.81,75.7383 188.5,74.5C 190.531,70.289 193.198,66.4556 196.5,63C 192.301,61.7589 187.967,60.7589 183.5,60C 188.238,59.7001 192.904,60.2001 197.5,61.5C 198.298,61.0431 198.631,60.3764 198.5,59.5C 200.62,58.5967 200.954,57.2633 199.5,55.5C 200.496,55.5858 201.329,55.2524 202,54.5C 205,49.1667 208,43.8333 211,38.5C 212.107,37.2881 212.607,37.6214 212.5,39.5 Z"/></g>
<g><path style="opacity:1" fill="#f5f7f9" d="M 85.5,61.5 C 83.8333,64.8333 82.1667,68.1667 80.5,71.5C 78.031,68.8562 75.6976,66.0228 73.5,63C 76.8433,61.8037 80.3433,60.9704 84,60.5C 84.7648,60.5699 85.2648,60.9033 85.5,61.5 Z"/></g>
<g><path style="opacity:1" fill="#f2f4f3" d="M 198.5,59.5 C 198.631,60.3764 198.298,61.0431 197.5,61.5C 192.904,60.2001 188.238,59.7001 183.5,60C 187.967,60.7589 192.301,61.7589 196.5,63C 193.198,66.4556 190.531,70.289 188.5,74.5C 187.833,74.5 187.5,74.8333 187.5,75.5C 187.167,75.5 186.833,75.5 186.5,75.5C 184.774,71.0469 182.774,66.7136 180.5,62.5C 179.5,61.1667 178.5,59.8333 177.5,58.5C 178.622,57.8442 179.955,57.5108 181.5,57.5C 187.152,58.3553 192.819,59.022 198.5,59.5 Z"/></g>
<g><path style="opacity:1" fill="#585858" d="M 57.5,58.5 C 60.8119,58.265 61.6453,59.265 60,61.5C 55.2048,62.7409 50.3715,63.7409 45.5,64.5C 43.4727,64.6621 41.4727,64.4955 39.5,64C 41.437,63.8784 42.7703,63.045 43.5,61.5C 48.0468,59.9905 52.7134,58.9905 57.5,58.5 Z"/></g>
<g><path style="opacity:1" fill="#49525d" d="M 67.5,13.5 C 70.4245,13.4598 73.0912,14.2932 75.5,16C 87.8663,23.1818 99.5329,31.3484 110.5,40.5C 119.859,35.8194 129.526,34.4861 139.5,36.5C 137.804,36.6854 136.471,37.5187 135.5,39C 128.934,39.1187 123.601,41.6187 119.5,46.5C 120.689,47.4287 122.022,47.762 123.5,47.5C 123.208,52.5976 125.542,55.5976 130.5,56.5C 129.675,57.3857 128.675,57.719 127.5,57.5C 127.5,58.8333 127.5,60.1667 127.5,61.5C 131.831,60.4511 133.997,62.1178 134,66.5C 135.5,68 137,69.5 138.5,71C 137.552,71.4828 136.552,71.6495 135.5,71.5C 135.5,72.5 135.5,73.5 135.5,74.5C 130.263,75.7974 124.93,76.4641 119.5,76.5C 119.649,75.448 119.483,74.448 119,73.5C 117.989,74.3366 116.822,74.67 115.5,74.5C 115.5,73.5 115.5,72.5 115.5,71.5C 109.111,72.1301 105.111,69.4634 103.5,63.5C 107.59,62.4321 109.757,59.7654 110,55.5C 110.333,56.5 110.667,57.5 111,58.5C 111.687,56.4325 111.52,54.4325 110.5,52.5C 111.32,50.8888 112.654,50.2222 114.5,50.5C 114.64,48.8762 113.973,47.7096 112.5,47C 113.5,46.1667 114.5,45.3333 115.5,44.5C 115,44.1667 114.5,43.8333 114,43.5C 111.845,44.2442 109.845,45.2442 108,46.5C 106.989,46.1081 106.489,45.4415 106.5,44.5C 104.093,45.8229 102.093,47.4895 100.5,49.5C 99.5486,50.9297 98.5486,52.4297 97.5,54C 98.428,54.3879 99.0946,55.0546 99.5,56C 97.5129,58.4763 96.5129,61.3097 96.5,64.5C 98.1667,64.5 99.8333,64.5 101.5,64.5C 102.484,67.8119 103.484,71.1452 104.5,74.5C 101.588,75.0685 98.5884,75.0685 95.5,74.5C 94.2055,70.9849 93.3722,67.3182 93,63.5C 91.1839,62.6705 89.3506,61.8372 87.5,61C 89.3588,60.3992 89.6921,59.5659 88.5,58.5C 85.8333,57.1667 83.1667,57.1667 80.5,58.5C 77.1337,58.7878 73.8004,58.9545 70.5,59C 69.3157,57.8545 69.3157,56.6879 70.5,55.5C 77.7859,54.3404 85.1193,53.5071 92.5,53C 95.8653,49.3426 99.532,46.176 103.5,43.5C 104.675,43.719 105.675,43.3857 106.5,42.5C 95.028,31.5934 82.028,22.9267 67.5,16.5C 67.1667,15.8333 66.8333,15.1667 66.5,14.5C 66.5,13.8333 66.8333,13.5 67.5,13.5 Z"/></g>
<g><path style="opacity:1" fill="#5f686e" d="M 103.5,63.5 C 102.957,63.44 102.624,63.1067 102.5,62.5C 103.946,60.3821 104.613,58.0488 104.5,55.5C 103.178,55.33 102.011,55.6634 101,56.5C 100.503,54.1902 100.337,51.8568 100.5,49.5C 102.093,47.4895 104.093,45.8229 106.5,44.5C 106.489,45.4415 106.989,46.1081 108,46.5C 109.845,45.2442 111.845,44.2442 114,43.5C 114.5,43.8333 115,44.1667 115.5,44.5C 114.5,45.3333 113.5,46.1667 112.5,47C 113.973,47.7096 114.64,48.8762 114.5,50.5C 112.654,50.2222 111.32,50.8888 110.5,52.5C 111.52,54.4325 111.687,56.4325 111,58.5C 110.667,57.5 110.333,56.5 110,55.5C 109.757,59.7654 107.59,62.4321 103.5,63.5 Z"/></g>
<g><path style="opacity:1" fill="#3a4652" d="M 139.5,36.5 C 142.727,36.6761 145.727,37.3428 148.5,38.5C 147.262,38.81 147.262,39.31 148.5,40C 152.628,41.8979 156.628,44.0646 160.5,46.5C 158.955,47.4519 157.288,47.7852 155.5,47.5C 155.881,45.0582 155.214,44.3915 153.5,45.5C 151.547,44.2393 149.547,43.0726 147.5,42C 141.833,41.3333 136.167,41.3333 130.5,42C 128.616,42.2163 126.949,42.883 125.5,44C 128.674,45.7248 132.007,47.0581 135.5,48C 138.867,50.7477 141.534,54.081 143.5,58C 146.117,58.8215 148.784,59.3215 151.5,59.5C 151.5,60.8333 151.5,62.1667 151.5,63.5C 155.465,63.1465 158.131,64.8132 159.5,68.5C 159.256,71.2626 157.923,73.4293 155.5,75C 154.451,75.4922 153.451,75.3256 152.5,74.5C 151.548,76.0453 151.215,77.712 151.5,79.5C 146.913,78.6218 143.58,80.1218 141.5,84C 139.559,84.7429 137.726,84.5762 136,83.5C 135.085,84.3279 134.419,85.3279 134,86.5C 129.285,84.235 125.119,85.235 121.5,89.5C 116.698,84.5729 112.365,79.2396 108.5,73.5C 107.355,74.7757 107.355,76.109 108.5,77.5C 105.559,78.522 102.559,79.3554 99.5,80C 98.1667,81 98.1667,82 99.5,83C 98.4366,84.1882 97.1033,84.6882 95.5,84.5C 95.634,86.2915 95.3007,87.9582 94.5,89.5C 91.8333,86.5 89.1667,83.5 86.5,80.5C 85.8333,79.1667 84.8333,78.1667 83.5,77.5C 82.5,75.5 81.5,73.5 80.5,71.5C 82.1667,68.1667 83.8333,64.8333 85.5,61.5C 86.5,60.5 87.5,59.5 88.5,58.5C 89.6921,59.5659 89.3588,60.3992 87.5,61C 89.3506,61.8372 91.1839,62.6705 93,63.5C 93.3722,67.3182 94.2055,70.9849 95.5,74.5C 98.5884,75.0685 101.588,75.0685 104.5,74.5C 103.484,71.1452 102.484,67.8119 101.5,64.5C 99.8333,64.5 98.1667,64.5 96.5,64.5C 96.5129,61.3097 97.5129,58.4763 99.5,56C 99.0946,55.0546 98.428,54.3879 97.5,54C 98.5486,52.4297 99.5486,50.9297 100.5,49.5C 100.337,51.8568 100.503,54.1902 101,56.5C 102.011,55.6634 103.178,55.33 104.5,55.5C 104.613,58.0488 103.946,60.3821 102.5,62.5C 102.624,63.1067 102.957,63.44 103.5,63.5C 105.111,69.4634 109.111,72.1301 115.5,71.5C 115.5,72.5 115.5,73.5 115.5,74.5C 116.822,74.67 117.989,74.3366 119,73.5C 119.483,74.448 119.649,75.448 119.5,76.5C 124.93,76.4641 130.263,75.7974 135.5,74.5C 135.5,73.5 135.5,72.5 135.5,71.5C 136.552,71.6495 137.552,71.4828 138.5,71C 137,69.5 135.5,68 134,66.5C 133.997,62.1178 131.831,60.4511 127.5,61.5C 127.5,60.1667 127.5,58.8333 127.5,57.5C 128.675,57.719 129.675,57.3857 130.5,56.5C 125.542,55.5976 123.208,52.5976 123.5,47.5C 122.022,47.762 120.689,47.4287 119.5,46.5C 123.601,41.6187 128.934,39.1187 135.5,39C 136.471,37.5187 137.804,36.6854 139.5,36.5 Z"/></g>
<g><path style="opacity:1" fill="#fcfcfc" d="M 77.5,83.5 C 77.3337,90.175 77.5004,96.8417 78,103.5C 78.2784,104.416 78.7784,105.082 79.5,105.5C 80.0303,110.09 81.3637,114.424 83.5,118.5C 82.6661,119.748 81.3328,120.415 79.5,120.5C 71.4689,119.645 63.4689,118.645 55.5,117.5C 54.791,116.596 53.791,116.263 52.5,116.5C 42.0845,113.305 31.7512,109.638 21.5,105.5C 17.4815,102.476 13.4815,99.4756 9.5,96.5C 9.56745,95.0413 9.23411,93.7079 8.5,92.5C 10.7001,86.3174 14.7001,81.4841 20.5,78C 33.3478,71.5788 46.8478,67.0788 61,64.5C 62.7106,64.4393 64.044,65.1059 65,66.5C 68.6439,72.6304 72.8106,78.297 77.5,83.5 Z"/></g>
<g><path style="opacity:1" fill="#fdfdfd" d="M 260.5,87.5 C 260.5,89.8333 260.5,92.1667 260.5,94.5C 259.797,96.7157 258.464,98.549 256.5,100C 242.541,108.705 227.541,114.538 211.5,117.5C 203.636,118.629 195.803,119.962 188,121.5C 186.649,119.982 185.149,118.649 183.5,117.5C 184.656,113.207 185.656,108.874 186.5,104.5C 188.178,99.4317 188.844,94.0984 188.5,88.5C 194.892,81.3872 200.559,73.7206 205.5,65.5C 222.28,66.3686 237.947,71.202 252.5,80C 255.036,82.705 257.703,85.205 260.5,87.5 Z"/></g>
<g><path style="opacity:1" fill="#d2d4d4" d="M 55.5,29.5 C 58.6012,38.369 62.7678,46.7023 68,54.5C 68.6708,55.2524 69.5041,55.5858 70.5,55.5C 69.3157,56.6879 69.3157,57.8545 70.5,59C 73.8004,58.9545 77.1337,58.7878 80.5,58.5C 82.1992,58.3398 83.8659,58.5065 85.5,59C 80.8125,59.7257 76.1459,60.559 71.5,61.5C 69.6031,61.2718 68.2697,60.2718 67.5,58.5C 67.1667,58.8333 66.8333,59.1667 66.5,59.5C 67.1667,60.5 67.8333,61.5 68.5,62.5C 67.8333,62.8333 67.1667,63.1667 66.5,63.5C 68.5894,66.5615 70.5894,69.5615 72.5,72.5C 74.8333,76.5 77.1667,80.5 79.5,84.5C 78.8333,84.1667 78.1667,83.8333 77.5,83.5C 72.8106,78.297 68.6439,72.6304 65,66.5C 64.044,65.1059 62.7106,64.4393 61,64.5C 46.8478,67.0788 33.3478,71.5788 20.5,78C 14.7001,81.4841 10.7001,86.3174 8.5,92.5C 7.49229,86.9862 9.49229,82.4862 14.5,79C 24.2743,72.7002 34.6077,67.8668 45.5,64.5C 50.3715,63.7409 55.2048,62.7409 60,61.5C 61.6453,59.265 60.8119,58.265 57.5,58.5C 57.8039,57.8501 58.1373,57.1835 58.5,56.5C 56.5797,53.6612 54.9131,50.6612 53.5,47.5C 54.4147,46.6721 55.0814,45.6721 55.5,44.5C 54.2766,39.89 52.6099,35.5566 50.5,31.5C 51.5521,29.744 53.2188,29.0773 55.5,29.5 Z"/></g>
<g><path style="opacity:1" fill="#294160" d="M 180.5,62.5 C 182.774,66.7136 184.774,71.0469 186.5,75.5C 186.672,76.4916 186.338,77.1583 185.5,77.5C 184.579,76.019 183.412,74.6856 182,73.5C 180.667,74.8333 179.333,76.1667 178,77.5C 175.667,76.5 173.333,75.5 171,74.5C 169.72,74.6135 168.887,75.2801 168.5,76.5C 170.288,77.2826 171.288,78.6159 171.5,80.5C 170.797,82.7157 169.464,84.549 167.5,86C 163.105,87.293 159.105,89.1264 155.5,91.5C 152.428,91.8174 149.428,91.4841 146.5,90.5C 147.34,89.265 148.34,88.265 149.5,87.5C 154.194,85.4885 159.194,84.3219 164.5,84C 167.779,82.7316 168.112,81.2316 165.5,79.5C 165.34,77.8008 165.506,76.1341 166,74.5C 169.451,69.8701 173.117,69.5367 177,73.5C 177.966,69.8823 177.466,66.549 175.5,63.5C 177.128,63.4214 178.795,63.0881 180.5,62.5 Z"/></g>
<g><path style="opacity:1" fill="#aeafb2" d="M 80.5,58.5 C 83.1667,57.1667 85.8333,57.1667 88.5,58.5C 87.5,59.5 86.5,60.5 85.5,61.5C 85.2648,60.9033 84.7648,60.5699 84,60.5C 80.3433,60.9704 76.8433,61.8037 73.5,63C 75.6976,66.0228 78.031,68.8562 80.5,71.5C 81.5,73.5 82.5,75.5 83.5,77.5C 82.8826,77.6107 82.3826,77.944 82,78.5C 79.9565,76.792 78.2899,74.792 77,72.5C 77.0773,73.7376 76.9106,74.7376 76.5,75.5C 75.3578,74.1738 74.0245,73.1738 72.5,72.5C 70.5894,69.5615 68.5894,66.5615 66.5,63.5C 67.1667,63.1667 67.8333,62.8333 68.5,62.5C 67.8333,61.5 67.1667,60.5 66.5,59.5C 66.8333,59.1667 67.1667,58.8333 67.5,58.5C 68.2697,60.2718 69.6031,61.2718 71.5,61.5C 76.1459,60.559 80.8125,59.7257 85.5,59C 83.8659,58.5065 82.1992,58.3398 80.5,58.5 Z"/></g>
<g><path style="opacity:1" fill="#7b7c81" d="M 196.5,74.5 C 194.238,79.0897 191.238,83.0897 187.5,86.5C 188.164,83.9854 189.497,81.8187 191.5,80C 188.894,79.5495 187.561,78.0495 187.5,75.5C 187.5,74.8333 187.833,74.5 188.5,74.5C 188.81,75.7383 189.31,75.7383 190,74.5C 193.985,68.8521 198.318,63.5188 203,58.5C 201.224,63.5473 198.724,68.3806 195.5,73C 196.056,73.3826 196.389,73.8826 196.5,74.5 Z"/></g>
<g><path style="opacity:1" fill="#d5d6d6" d="M 219.5,40.5 C 217.372,46.0901 214.705,51.4235 211.5,56.5C 211.863,57.1835 212.196,57.8501 212.5,58.5C 208.623,58.4825 207.957,59.6492 210.5,62C 224.042,64.7361 237.042,69.0694 249.5,75C 254.641,77.6407 258.641,81.474 261.5,86.5C 261.376,87.1067 261.043,87.44 260.5,87.5C 257.703,85.205 255.036,82.705 252.5,80C 237.947,71.202 222.28,66.3686 205.5,65.5C 200.559,73.7206 194.892,81.3872 188.5,88.5C 188.167,88.5 187.833,88.5 187.5,88.5C 187.5,87.8333 187.5,87.1667 187.5,86.5C 191.238,83.0897 194.238,79.0897 196.5,74.5C 202.604,65.9591 207.937,56.9591 212.5,47.5C 214.912,44.6323 216.579,41.299 217.5,37.5C 218.804,36.0131 219.97,34.3464 221,32.5C 220.847,35.1738 220.347,37.8405 219.5,40.5 Z"/></g>
<g><path style="opacity:1" fill="#8a8a8a" d="M 212.5,58.5 C 222.401,60.0779 232.068,62.5779 241.5,66C 250.549,68.8462 258.216,73.6795 264.5,80.5C 268.272,85.358 269.272,90.6913 267.5,96.5C 265.807,97.4749 264.307,98.8082 263,100.5C 262.25,99.8742 261.416,99.3742 260.5,99C 264.811,96.3897 265.644,92.8897 263,88.5C 262.155,90.6115 261.322,92.6115 260.5,94.5C 260.5,92.1667 260.5,89.8333 260.5,87.5C 261.043,87.44 261.376,87.1067 261.5,86.5C 258.641,81.474 254.641,77.6407 249.5,75C 237.042,69.0694 224.042,64.7361 210.5,62C 207.957,59.6492 208.623,58.4825 212.5,58.5 Z"/></g>
<g><path style="opacity:1" fill="#8a8a8a" d="M 43.5,61.5 C 42.7703,63.045 41.437,63.8784 39.5,64C 41.4727,64.4955 43.4727,64.6621 45.5,64.5C 34.6077,67.8668 24.2743,72.7002 14.5,79C 9.49229,82.4862 7.49229,86.9862 8.5,92.5C 9.23411,93.7079 9.56745,95.0413 9.5,96.5C 8.54163,96.0472 7.7083,95.3805 7,94.5C 7.59479,89.9024 5.76146,86.9024 1.5,85.5C 1.933,82.8045 3.26633,80.6379 5.5,79C 16.7592,70.2051 29.4259,64.3718 43.5,61.5 Z"/></g>
<g><path style="opacity:1" fill="#8d959c" d="M 72.5,72.5 C 74.0245,73.1738 75.3578,74.1738 76.5,75.5C 76.9106,74.7376 77.0773,73.7376 77,72.5C 78.2899,74.792 79.9565,76.792 82,78.5C 82.3826,77.944 82.8826,77.6107 83.5,77.5C 84.8333,78.1667 85.8333,79.1667 86.5,80.5C 85.9717,81.7206 85.305,82.8873 84.5,84C 88.291,87.247 91.6243,90.9137 94.5,95C 92.3488,97.0215 90.8488,96.5215 90,93.5C 89.5,94 89,94.5 88.5,95C 90.1412,96.129 91.1412,97.629 91.5,99.5C 86.7469,95.0826 82.7469,90.0826 79.5,84.5C 77.1667,80.5 74.8333,76.5 72.5,72.5 Z"/></g>
<g><path style="opacity:1" fill="#7f8ba3" d="M 186.5,75.5 C 186.833,75.5 187.167,75.5 187.5,75.5C 187.561,78.0495 188.894,79.5495 191.5,80C 189.497,81.8187 188.164,83.9854 187.5,86.5C 187.5,87.1667 187.5,87.8333 187.5,88.5C 185.118,93.2476 181.784,97.2476 177.5,100.5C 177.343,99.1266 177.51,97.7932 178,96.5C 178.333,96.8333 178.667,97.1667 179,97.5C 181.285,95.0934 183.451,92.5934 185.5,90C 184.175,90.1484 183.008,89.9817 182,89.5C 176.376,97.2917 169.876,104.292 162.5,110.5C 166.119,105.871 169.786,101.204 173.5,96.5C 173.043,95.7025 172.376,95.3691 171.5,95.5C 173.934,91.6183 176.601,87.9516 179.5,84.5C 181.499,82.1963 183.499,79.863 185.5,77.5C 186.338,77.1583 186.672,76.4916 186.5,75.5 Z"/></g>
<g><path style="opacity:1" fill="#35639e" d="M 185.5,77.5 C 183.499,79.863 181.499,82.1963 179.5,84.5C 179.89,79.5776 178.723,79.2443 176,83.5C 175.092,81.5614 173.592,80.5614 171.5,80.5C 171.288,78.6159 170.288,77.2826 168.5,76.5C 168.887,75.2801 169.72,74.6135 171,74.5C 173.333,75.5 175.667,76.5 178,77.5C 179.333,76.1667 180.667,74.8333 182,73.5C 183.412,74.6856 184.579,76.019 185.5,77.5 Z"/></g>
<g><path style="opacity:1" fill="#28384d" d="M 159.5,68.5 C 160.5,68.5 161.5,68.5 162.5,68.5C 160.568,72.1257 158.568,75.7923 156.5,79.5C 159.713,81.9763 162.713,81.9763 165.5,79.5C 168.112,81.2316 167.779,82.7316 164.5,84C 159.194,84.3219 154.194,85.4885 149.5,87.5C 148.448,87.3505 147.448,87.5172 146.5,88C 145.48,89.5557 144.147,90.7224 142.5,91.5C 135.981,92.755 129.481,94.0883 123,95.5C 114.337,92.1512 105.837,91.8178 97.5,94.5C 96.2632,93.0351 95.2632,91.3684 94.5,89.5C 95.3007,87.9582 95.634,86.2915 95.5,84.5C 97.1033,84.6882 98.4366,84.1882 99.5,83C 98.1667,82 98.1667,81 99.5,80C 102.559,79.3554 105.559,78.522 108.5,77.5C 107.355,76.109 107.355,74.7757 108.5,73.5C 112.365,79.2396 116.698,84.5729 121.5,89.5C 125.119,85.235 129.285,84.235 134,86.5C 134.419,85.3279 135.085,84.3279 136,83.5C 137.726,84.5762 139.559,84.7429 141.5,84C 143.58,80.1218 146.913,78.6218 151.5,79.5C 151.215,77.712 151.548,76.0453 152.5,74.5C 153.451,75.3256 154.451,75.4922 155.5,75C 157.923,73.4293 159.256,71.2626 159.5,68.5 Z"/></g>
<g><path style="opacity:1" fill="#b6b8b7" d="M 1.5,85.5 C 5.76146,86.9024 7.59479,89.9024 7,94.5C 7.7083,95.3805 8.54163,96.0472 9.5,96.5C 13.4815,99.4756 17.4815,102.476 21.5,105.5C 20.352,106.164 19.0187,106.331 17.5,106C 18.9597,106.811 19.293,107.645 18.5,108.5C 15.1256,105.955 11.6256,103.622 8,101.5C 7.2352,101.57 6.7352,101.903 6.5,102.5C 5.21009,101.942 4.37675,100.942 4,99.5C 3.60469,95.9811 2.60469,92.6478 1,89.5C 0.813823,92.0356 0.313823,94.369 -0.5,96.5C -0.5,93.5 -0.5,90.5 -0.5,87.5C 0.166667,86.8333 0.833333,86.1667 1.5,85.5 Z"/></g>
<g><path style="opacity:1" fill="#192c4e" d="M 77.5,83.5 C 78.1667,83.8333 78.8333,84.1667 79.5,84.5C 82.7469,90.0826 86.7469,95.0826 91.5,99.5C 92.9213,102.009 94.5879,104.343 96.5,106.5C 92.9621,106.785 91.1288,105.118 91,101.5C 89.9887,100.663 88.8221,100.33 87.5,100.5C 87.6495,99.448 87.4828,98.448 87,97.5C 86.6667,98.8333 86.3333,100.167 86,101.5C 83.9935,100.331 81.8268,99.6646 79.5,99.5C 79.5,101.5 79.5,103.5 79.5,105.5C 78.7784,105.082 78.2784,104.416 78,103.5C 77.5004,96.8417 77.3337,90.175 77.5,83.5 Z"/></g>
<g><path style="opacity:1" fill="#15366b" d="M 171.5,80.5 C 173.592,80.5614 175.092,81.5614 176,83.5C 178.723,79.2443 179.89,79.5776 179.5,84.5C 176.601,87.9516 173.934,91.6183 171.5,95.5C 168.719,98.7365 165.719,101.736 162.5,104.5C 162.436,100.938 160.603,99.2709 157,99.5C 151.859,99.2799 147.859,101.28 145,105.5C 144.044,104.421 143.211,103.255 142.5,102C 137.92,102.143 133.42,101.976 129,101.5C 125.611,103.224 122.111,104.724 118.5,106C 116.393,107.264 115.393,109.097 115.5,111.5C 117.199,111.527 118.533,112.194 119.5,113.5C 120.186,114.848 121.186,116.015 122.5,117C 121.944,117.383 121.611,117.883 121.5,118.5C 118.833,116.833 116.167,115.167 113.5,113.5C 113.5,113.167 113.5,112.833 113.5,112.5C 113.376,110.418 112.376,108.918 110.5,108C 116.489,105 122.489,102 128.5,99C 134.136,99.3323 139.136,97.8323 143.5,94.5C 148.291,96.2637 152.291,95.2637 155.5,91.5C 159.105,89.1264 163.105,87.293 167.5,86C 169.464,84.549 170.797,82.7157 171.5,80.5 Z"/></g>
<g><path style="opacity:1" fill="#234c8e" d="M 187.5,88.5 C 187.833,88.5 188.167,88.5 188.5,88.5C 188.844,94.0984 188.178,99.4317 186.5,104.5C 186.5,102.833 186.5,101.167 186.5,99.5C 186.662,97.4727 186.495,95.4727 186,93.5C 184.314,97.0137 182.314,100.347 180,103.5C 175.94,104.726 173.44,107.393 172.5,111.5C 170.486,111.392 168.82,112.058 167.5,113.5C 170.833,109.167 174.167,104.833 177.5,100.5C 181.784,97.2476 185.118,93.2476 187.5,88.5 Z"/></g>
<g><path style="opacity:1" fill="#6d7a8a" d="M 86.5,80.5 C 89.1667,83.5 91.8333,86.5 94.5,89.5C 95.2632,91.3684 96.2632,93.0351 97.5,94.5C 103.36,99.2429 108.027,104.91 111.5,111.5C 109.254,110.545 106.921,109.878 104.5,109.5C 104.768,111.099 104.434,112.432 103.5,113.5C 101.167,111.167 98.8333,108.833 96.5,106.5C 94.5879,104.343 92.9213,102.009 91.5,99.5C 91.1412,97.629 90.1412,96.129 88.5,95C 89,94.5 89.5,94 90,93.5C 90.8488,96.5215 92.3488,97.0215 94.5,95C 91.6243,90.9137 88.291,87.247 84.5,84C 85.305,82.8873 85.9717,81.7206 86.5,80.5 Z"/></g>
<g><path style="opacity:1" fill="#597396" d="M 177.5,100.5 C 174.167,104.833 170.833,109.167 167.5,113.5C 164.378,116.446 161.044,119.279 157.5,122C 158.905,123.269 160.571,123.769 162.5,123.5C 163.5,123.5 164.5,123.5 165.5,123.5C 168.833,123.5 172.167,123.5 175.5,123.5C 177.292,123.634 178.958,123.301 180.5,122.5C 181.738,122.81 181.738,123.31 180.5,124C 172.298,124.211 164.131,124.711 156,125.5C 154.7,124.293 153.2,123.626 151.5,123.5C 151.351,122.448 151.517,121.448 152,120.5C 155.308,116.795 158.808,113.461 162.5,110.5C 169.876,104.292 176.376,97.2917 182,89.5C 183.008,89.9817 184.175,90.1484 185.5,90C 183.451,92.5934 181.285,95.0934 179,97.5C 178.667,97.1667 178.333,96.8333 178,96.5C 177.51,97.7932 177.343,99.1266 177.5,100.5 Z"/></g>
<g><path style="opacity:1" fill="#fefefd" d="M 270.5,96.5 C 270.5,126.167 270.5,155.833 270.5,185.5C 248.5,185.5 226.5,185.5 204.5,185.5C 207.327,184.581 209.66,182.914 211.5,180.5C 213.163,178.562 213.829,176.228 213.5,173.5C 216.315,169.642 218.315,165.309 219.5,160.5C 219.457,159.584 219.124,158.917 218.5,158.5C 217.614,153.28 214.614,149.947 209.5,148.5C 208.081,147.549 206.415,147.216 204.5,147.5C 201.248,142.666 198.248,137.666 195.5,132.5C 195.791,131.351 196.624,130.684 198,130.5C 219.481,127.878 239.647,121.378 258.5,111C 263.497,106.851 267.497,102.017 270.5,96.5 Z"/></g>
<g><path style="opacity:1" fill="#6d7985" d="M 171.5,95.5 C 172.376,95.3691 173.043,95.7025 173.5,96.5C 169.786,101.204 166.119,105.871 162.5,110.5C 158.808,113.461 155.308,116.795 152,120.5C 151.517,121.448 151.351,122.448 151.5,123.5C 149.182,125.421 146.516,125.754 143.5,124.5C 144.833,122.5 146.5,120.833 148.5,119.5C 149.338,119.158 149.672,118.492 149.5,117.5C 151.084,116.618 152.751,115.785 154.5,115C 157.414,111.6 160.08,108.1 162.5,104.5C 165.719,101.736 168.719,98.7365 171.5,95.5 Z"/></g>
<g><path style="opacity:1" fill="#0f2243" d="M 149.5,87.5 C 148.34,88.265 147.34,89.265 146.5,90.5C 149.428,91.4841 152.428,91.8174 155.5,91.5C 152.291,95.2637 148.291,96.2637 143.5,94.5C 139.136,97.8323 134.136,99.3323 128.5,99C 122.489,102 116.489,105 110.5,108C 112.376,108.918 113.376,110.418 113.5,112.5C 112.833,112.167 112.167,111.833 111.5,111.5C 108.027,104.91 103.36,99.2429 97.5,94.5C 105.837,91.8178 114.337,92.1512 123,95.5C 129.481,94.0883 135.981,92.755 142.5,91.5C 144.147,90.7224 145.48,89.5557 146.5,88C 147.448,87.5172 148.448,87.3505 149.5,87.5 Z"/></g>
<g><path style="opacity:1" fill="#153b7b" d="M 162.5,104.5 C 160.08,108.1 157.414,111.6 154.5,115C 152.751,115.785 151.084,116.618 149.5,117.5C 149.5,116.5 149.5,115.5 149.5,114.5C 150.552,114.649 151.552,114.483 152.5,114C 151.253,112.542 151.253,111.042 152.5,109.5C 152.081,108.328 151.415,107.328 150.5,106.5C 144.067,111.445 136.733,113.611 128.5,113C 127.692,114.706 126.359,115.539 124.5,115.5C 124.707,112.255 123.207,110.255 120,109.5C 119.51,110.793 119.343,112.127 119.5,113.5C 118.533,112.194 117.199,111.527 115.5,111.5C 115.393,109.097 116.393,107.264 118.5,106C 122.111,104.724 125.611,103.224 129,101.5C 133.42,101.976 137.92,102.143 142.5,102C 143.211,103.255 144.044,104.421 145,105.5C 147.859,101.28 151.859,99.2799 157,99.5C 160.603,99.2709 162.436,100.938 162.5,104.5 Z"/></g>
<g><path style="opacity:1" fill="#fefefd" d="M -0.5,99.5 C 3.44571,104.44 8.11237,108.773 13.5,112.5C 31.7477,121.915 51.081,127.915 71.5,130.5C 73.0296,130.64 74.0296,131.307 74.5,132.5C 71.1667,137.833 67.8333,143.167 64.5,148.5C 62.901,148.232 61.5676,148.566 60.5,149.5C 59.5084,149.328 58.8417,149.662 58.5,150.5C 52.7738,153.272 50.1071,157.939 50.5,164.5C 51.0787,167.331 52.412,169.664 54.5,171.5C 54.8333,171.5 55.1667,171.5 55.5,171.5C 55.0237,175.378 56.0237,178.712 58.5,181.5C 60.449,183.563 62.7823,184.896 65.5,185.5C 43.5,185.5 21.5,185.5 -0.5,185.5C -0.5,156.833 -0.5,128.167 -0.5,99.5 Z"/></g>
<g><path style="opacity:1" fill="#727274" d="M 267.5,96.5 C 265.438,101.399 262.104,105.232 257.5,108C 250.54,112.314 243.207,115.814 235.5,118.5C 236.85,117.35 236.684,116.683 235,116.5C 229.173,118.422 223.34,119.589 217.5,120C 219.384,119.784 221.051,119.117 222.5,118C 218.848,117.501 215.182,117.335 211.5,117.5C 227.541,114.538 242.541,108.705 256.5,100C 258.464,98.549 259.797,96.7157 260.5,94.5C 261.322,92.6115 262.155,90.6115 263,88.5C 265.644,92.8897 264.811,96.3897 260.5,99C 261.416,99.3742 262.25,99.8742 263,100.5C 264.307,98.8082 265.807,97.4749 267.5,96.5 Z"/></g>
<g><path style="opacity:1" fill="#234b90" d="M 96.5,106.5 C 98.8333,108.833 101.167,111.167 103.5,113.5C 103.5,113.833 103.5,114.167 103.5,114.5C 100.48,113.282 97.3138,112.282 94,111.5C 90.5397,112.743 88.5397,111.409 88,107.5C 86.0096,105.344 83.8429,103.344 81.5,101.5C 80.359,103.421 80.1923,105.421 81,107.5C 82.9398,110.928 84.1065,114.594 84.5,118.5C 84.1667,118.5 83.8333,118.5 83.5,118.5C 81.3637,114.424 80.0303,110.09 79.5,105.5C 79.5,103.5 79.5,101.5 79.5,99.5C 81.8268,99.6646 83.9935,100.331 86,101.5C 86.3333,100.167 86.6667,98.8333 87,97.5C 87.4828,98.448 87.6495,99.448 87.5,100.5C 88.8221,100.33 89.9887,100.663 91,101.5C 91.1288,105.118 92.9621,106.785 96.5,106.5 Z"/></g>
<g><path style="opacity:1" fill="#3c68ab" d="M 186.5,104.5 C 185.656,108.874 184.656,113.207 183.5,117.5C 181.75,118.659 180.75,120.326 180.5,122.5C 178.958,123.301 177.292,123.634 175.5,123.5C 177.636,120.597 179.802,117.597 182,114.5C 183.232,110.939 184.732,107.606 186.5,104.5 Z"/></g>
<g><path style="opacity:1" fill="#0c4cab" d="M 186.5,99.5 C 183.315,103.486 179.481,106.819 175,109.5C 172.394,114.595 169.228,119.262 165.5,123.5C 164.5,123.5 163.5,123.5 162.5,123.5C 166.746,120.391 170.08,116.391 172.5,111.5C 173.44,107.393 175.94,104.726 180,103.5C 182.314,100.347 184.314,97.0137 186,93.5C 186.495,95.4727 186.662,97.4727 186.5,99.5 Z"/></g>
<g><path style="opacity:1" fill="#4e6895" d="M 111.5,111.5 C 112.167,111.833 112.833,112.167 113.5,112.5C 113.5,112.833 113.5,113.167 113.5,113.5C 114.572,116.63 116.406,119.296 119,121.5C 119.688,122.332 119.521,122.998 118.5,123.5C 117.252,124.04 116.085,124.707 115,125.5C 110.599,124.533 106.099,124.2 101.5,124.5C 101.5,124.167 101.5,123.833 101.5,123.5C 104.833,123.5 108.167,123.5 111.5,123.5C 111.762,122.022 111.429,120.689 110.5,119.5C 107.87,118.196 105.537,116.53 103.5,114.5C 103.5,114.167 103.5,113.833 103.5,113.5C 104.434,112.432 104.768,111.099 104.5,109.5C 106.921,109.878 109.254,110.545 111.5,111.5 Z"/></g>
<g><path style="opacity:1" fill="#144695" d="M 149.5,117.5 C 149.672,118.492 149.338,119.158 148.5,119.5C 148.649,118.448 148.483,117.448 148,116.5C 146.601,117.227 145.101,117.727 143.5,118C 136.174,118.5 128.841,118.666 121.5,118.5C 121.611,117.883 121.944,117.383 122.5,117C 121.186,116.015 120.186,114.848 119.5,113.5C 119.343,112.127 119.51,110.793 120,109.5C 123.207,110.255 124.707,112.255 124.5,115.5C 126.359,115.539 127.692,114.706 128.5,113C 136.733,113.611 144.067,111.445 150.5,106.5C 151.415,107.328 152.081,108.328 152.5,109.5C 151.253,111.042 151.253,112.542 152.5,114C 151.552,114.483 150.552,114.649 149.5,114.5C 149.5,115.5 149.5,116.5 149.5,117.5 Z"/></g>
<g><path style="opacity:1" fill="#3b7ee8" d="M 172.5,111.5 C 170.08,116.391 166.746,120.391 162.5,123.5C 160.571,123.769 158.905,123.269 157.5,122C 161.044,119.279 164.378,116.446 167.5,113.5C 168.82,112.058 170.486,111.392 172.5,111.5 Z"/></g>
<g><path style="opacity:1" fill="#a1a1a0" d="M 21.5,105.5 C 31.7512,109.638 42.0845,113.305 52.5,116.5C 48.1831,117.479 43.8498,117.313 39.5,116C 33.2599,114.531 27.2599,112.364 21.5,109.5C 21.9125,110.782 21.2458,111.782 19.5,112.5C 14.5722,109.901 10.2389,106.568 6.5,102.5C 6.7352,101.903 7.2352,101.57 8,101.5C 11.6256,103.622 15.1256,105.955 18.5,108.5C 19.293,107.645 18.9597,106.811 17.5,106C 19.0187,106.331 20.352,106.164 21.5,105.5 Z"/></g>
<g><path style="opacity:1" fill="#3188f3" d="M 186.5,99.5 C 186.5,101.167 186.5,102.833 186.5,104.5C 184.732,107.606 183.232,110.939 182,114.5C 179.802,117.597 177.636,120.597 175.5,123.5C 172.167,123.5 168.833,123.5 165.5,123.5C 169.228,119.262 172.394,114.595 175,109.5C 179.481,106.819 183.315,103.486 186.5,99.5 Z"/></g>
<g><path style="opacity:1" fill="#8c8c8c" d="M 52.5,116.5 C 53.791,116.263 54.791,116.596 55.5,117.5C 51.6464,118.975 47.6464,119.475 43.5,119C 45.5844,119.697 47.2511,120.864 48.5,122.5C 38.203,120.735 28.5363,117.402 19.5,112.5C 21.2458,111.782 21.9125,110.782 21.5,109.5C 27.2599,112.364 33.2599,114.531 39.5,116C 43.8498,117.313 48.1831,117.479 52.5,116.5 Z"/></g>
<g><path style="opacity:1" fill="#2967cc" d="M 103.5,114.5 C 105.537,116.53 107.87,118.196 110.5,119.5C 111.429,120.689 111.762,122.022 111.5,123.5C 108.167,123.5 104.833,123.5 101.5,123.5C 101.167,123.5 100.833,123.5 100.5,123.5C 99.2073,121.704 97.7073,120.037 96,118.5C 95.5172,117.552 95.3505,116.552 95.5,115.5C 94.448,115.351 93.448,115.517 92.5,116C 93.6399,117.973 94.9733,119.807 96.5,121.5C 95.6667,121.833 94.8333,122.167 94,122.5C 91.1776,121.725 88.3443,121.058 85.5,120.5C 85.1667,119.833 84.8333,119.167 84.5,118.5C 84.1065,114.594 82.9398,110.928 81,107.5C 80.1923,105.421 80.359,103.421 81.5,101.5C 83.8429,103.344 86.0096,105.344 88,107.5C 88.5397,111.409 90.5397,112.743 94,111.5C 97.3138,112.282 100.48,113.282 103.5,114.5 Z"/></g>
<g><path style="opacity:1" fill="#327eee" d="M 148.5,119.5 C 146.5,120.833 144.833,122.5 143.5,124.5C 137.491,124.666 131.491,124.499 125.5,124C 123.536,122.549 122.203,120.716 121.5,118.5C 128.841,118.666 136.174,118.5 143.5,118C 145.101,117.727 146.601,117.227 148,116.5C 148.483,117.448 148.649,118.448 148.5,119.5 Z"/></g>
<g><path style="opacity:1" fill="#355798" d="M 100.5,123.5 C 96.8183,123.665 93.1516,123.499 89.5,123C 87.2929,122.375 85.9596,121.541 85.5,120.5C 88.3443,121.058 91.1776,121.725 94,122.5C 94.8333,122.167 95.6667,121.833 96.5,121.5C 94.9733,119.807 93.6399,117.973 92.5,116C 93.448,115.517 94.448,115.351 95.5,115.5C 95.3505,116.552 95.5172,117.552 96,118.5C 97.7073,120.037 99.2073,121.704 100.5,123.5 Z"/></g>
<g><path style="opacity:1" fill="#bebfc2" d="M 264.5,80.5 C 267.745,82.6521 269.745,85.6521 270.5,89.5C 270.5,91.8333 270.5,94.1667 270.5,96.5C 267.497,102.017 263.497,106.851 258.5,111C 239.647,121.378 219.481,127.878 198,130.5C 196.624,130.684 195.791,131.351 195.5,132.5C 194.739,131.609 193.739,130.942 192.5,130.5C 188.339,131.04 184.339,131.707 180.5,132.5C 176.538,133.238 172.538,133.905 168.5,134.5C 164.688,133.676 160.688,133.176 156.5,133C 155.944,132.617 155.611,132.117 155.5,131.5C 160.463,132.496 165.463,132.663 170.5,132C 178.106,131.143 185.439,129.643 192.5,127.5C 197.519,127.248 202.519,126.748 207.5,126C 216.918,123.812 226.251,121.312 235.5,118.5C 243.207,115.814 250.54,112.314 257.5,108C 262.104,105.232 265.438,101.399 267.5,96.5C 269.272,90.6913 268.272,85.358 264.5,80.5 Z"/></g>
<g><path style="opacity:1" fill="#575758" d="M 235.5,118.5 C 226.251,121.312 216.918,123.812 207.5,126C 202.519,126.748 197.519,127.248 192.5,127.5C 181.5,127.5 170.5,127.5 159.5,127.5C 153.445,127.662 147.445,127.162 141.5,126C 142.416,125.722 143.082,125.222 143.5,124.5C 146.516,125.754 149.182,125.421 151.5,123.5C 153.2,123.626 154.7,124.293 156,125.5C 164.131,124.711 172.298,124.211 180.5,124C 181.738,123.31 181.738,122.81 180.5,122.5C 180.75,120.326 181.75,118.659 183.5,117.5C 185.149,118.649 186.649,119.982 188,121.5C 195.803,119.962 203.636,118.629 211.5,117.5C 215.182,117.335 218.848,117.501 222.5,118C 221.051,119.117 219.384,119.784 217.5,120C 223.34,119.589 229.173,118.422 235,116.5C 236.684,116.683 236.85,117.35 235.5,118.5 Z"/></g>
<g><path style="opacity:1" fill="#707272" d="M 55.5,117.5 C 63.4689,118.645 71.4689,119.645 79.5,120.5C 81.3328,120.415 82.6661,119.748 83.5,118.5C 83.8333,118.5 84.1667,118.5 84.5,118.5C 84.8333,119.167 85.1667,119.833 85.5,120.5C 85.9596,121.541 87.2929,122.375 89.5,123C 93.1516,123.499 96.8183,123.665 100.5,123.5C 100.833,123.5 101.167,123.5 101.5,123.5C 101.5,123.833 101.5,124.167 101.5,124.5C 104.465,125.626 107.465,126.626 110.5,127.5C 103.5,127.5 96.5,127.5 89.5,127.5C 86.6029,127.681 83.7695,127.348 81,126.5C 79.9889,127.056 79.1556,127.722 78.5,128.5C 68.2503,127.571 58.2503,125.571 48.5,122.5C 47.2511,120.864 45.5844,119.697 43.5,119C 47.6464,119.475 51.6464,118.975 55.5,117.5 Z"/></g>
<g><path style="opacity:1" fill="#667182" d="M 113.5,113.5 C 116.167,115.167 118.833,116.833 121.5,118.5C 122.203,120.716 123.536,122.549 125.5,124C 131.491,124.499 137.491,124.666 143.5,124.5C 143.082,125.222 142.416,125.722 141.5,126C 147.445,127.162 153.445,127.662 159.5,127.5C 157.052,128.473 154.385,128.806 151.5,128.5C 150.448,128.351 149.448,128.517 148.5,129C 150.795,130.062 151.461,131.562 150.5,133.5C 148.167,133.5 145.833,133.5 143.5,133.5C 143.489,131.983 142.823,130.816 141.5,130C 137.833,129.333 134.167,129.333 130.5,130C 128.937,130.759 127.937,131.926 127.5,133.5C 125.5,133.5 123.5,133.5 121.5,133.5C 119.429,132.213 119.096,130.547 120.5,128.5C 117.232,127.513 113.898,127.18 110.5,127.5C 107.465,126.626 104.465,125.626 101.5,124.5C 106.099,124.2 110.599,124.533 115,125.5C 116.085,124.707 117.252,124.04 118.5,123.5C 119.521,122.998 119.688,122.332 119,121.5C 116.406,119.296 114.572,116.63 113.5,113.5 Z"/></g>
<g><path style="opacity:1" fill="#4c73ac" d="M 159.5,127.5 C 170.5,127.5 181.5,127.5 192.5,127.5C 185.439,129.643 178.106,131.143 170.5,132C 165.463,132.663 160.463,132.496 155.5,131.5C 154.167,130.5 152.833,129.5 151.5,128.5C 154.385,128.806 157.052,128.473 159.5,127.5 Z"/></g>
<g><path style="opacity:1" fill="#d2d5d6" d="M 6.5,102.5 C 10.2389,106.568 14.5722,109.901 19.5,112.5C 28.5363,117.402 38.203,120.735 48.5,122.5C 58.2503,125.571 68.2503,127.571 78.5,128.5C 89.5265,131.294 100.86,132.627 112.5,132.5C 110.735,133.461 108.735,133.795 106.5,133.5C 103.167,133.5 99.8333,133.5 96.5,133.5C 91.4741,132.605 86.4741,132.605 81.5,133.5C 77.3988,138.701 74.0654,144.367 71.5,150.5C 70.5084,150.672 69.8417,150.338 69.5,149.5C 72.5038,143.343 76.1704,137.509 80.5,132C 78.1697,129.909 76.1697,130.075 74.5,132.5C 74.0296,131.307 73.0296,130.64 71.5,130.5C 51.081,127.915 31.7477,121.915 13.5,112.5C 8.11237,108.773 3.44571,104.44 -0.5,99.5C -0.5,98.5 -0.5,97.5 -0.5,96.5C 0.313823,94.369 0.813823,92.0356 1,89.5C 2.60469,92.6478 3.60469,95.9811 4,99.5C 4.37675,100.942 5.21009,101.942 6.5,102.5 Z"/></g>
<g><path style="opacity:1" fill="#506a8e" d="M 89.5,127.5 C 97.9398,128.124 106.273,129.457 114.5,131.5C 113.508,131.328 112.842,131.662 112.5,132.5C 100.86,132.627 89.5265,131.294 78.5,128.5C 79.1556,127.722 79.9889,127.056 81,126.5C 83.7695,127.348 86.6029,127.681 89.5,127.5 Z"/></g>
<g><path style="opacity:1" fill="#7696c8" d="M 89.5,127.5 C 96.5,127.5 103.5,127.5 110.5,127.5C 113.898,127.18 117.232,127.513 120.5,128.5C 119.096,130.547 119.429,132.213 121.5,133.5C 118.812,133.834 116.479,133.168 114.5,131.5C 106.273,129.457 97.9398,128.124 89.5,127.5 Z"/></g>
<g><path style="opacity:1" fill="#506b9b" d="M 143.5,133.5 C 140.167,133.5 136.833,133.5 133.5,133.5C 131.5,133.5 129.5,133.5 127.5,133.5C 127.937,131.926 128.937,130.759 130.5,130C 134.167,129.333 137.833,129.333 141.5,130C 142.823,130.816 143.489,131.983 143.5,133.5 Z"/></g>
<g><path style="opacity:1" fill="#fbfbfa" d="M 96.5,133.5 C 100.729,137.717 105.729,140.717 111.5,142.5C 113.649,143.736 115.982,144.736 118.5,145.5C 118.833,145.5 119.167,145.5 119.5,145.5C 105.528,158.95 89.5284,169.45 71.5,177C 68.7395,177.722 66.0728,177.555 63.5,176.5C 63.5,175.833 63.5,175.167 63.5,174.5C 65.099,174.768 66.4324,174.434 67.5,173.5C 72.2861,172.381 74.9527,169.381 75.5,164.5C 76.8333,162.167 76.8333,159.833 75.5,157.5C 74.4314,155.031 73.0981,152.698 71.5,150.5C 74.0654,144.367 77.3988,138.701 81.5,133.5C 86.4741,132.605 91.4741,132.605 96.5,133.5 Z"/></g>
<g><path style="opacity:1" fill="#aac9f6" d="M 114.5,131.5 C 116.479,133.168 118.812,133.834 121.5,133.5C 123.5,133.5 125.5,133.5 127.5,133.5C 129.5,133.5 131.5,133.5 133.5,133.5C 133.672,134.492 133.338,135.158 132.5,135.5C 123.833,134.833 115.167,134.167 106.5,133.5C 108.735,133.795 110.735,133.461 112.5,132.5C 112.842,131.662 113.508,131.328 114.5,131.5 Z"/></g>
<g><path style="opacity:1" fill="#fbfbfa" d="M 180.5,132.5 C 183.685,132.02 186.519,132.686 189,134.5C 192.643,139.455 195.476,144.788 197.5,150.5C 193.997,154.031 192.663,158.364 193.5,163.5C 194.427,167.425 196.76,170.092 200.5,171.5C 202.214,172.738 204.214,173.405 206.5,173.5C 206.845,176.488 205.512,177.821 202.5,177.5C 197.286,176.706 192.286,175.206 187.5,173C 174.173,165.499 161.84,156.666 150.5,146.5C 150.167,145.833 149.833,145.167 149.5,144.5C 152.157,144.065 154.491,143.065 156.5,141.5C 161.129,140.187 165.129,137.854 168.5,134.5C 172.538,133.905 176.538,133.238 180.5,132.5 Z"/></g>
<g><path style="opacity:1" fill="#3d6cb9" d="M 96.5,133.5 C 99.8333,133.5 103.167,133.5 106.5,133.5C 115.167,134.167 123.833,134.833 132.5,135.5C 131.5,136.833 130.5,138.167 129.5,139.5C 128.167,139.5 126.833,139.5 125.5,139.5C 125.771,141.38 125.104,142.713 123.5,143.5C 123.62,141.801 123.954,140.135 124.5,138.5C 124.048,136.688 122.882,135.688 121,135.5C 117.554,137.414 114.054,138.08 110.5,137.5C 108.559,137.196 106.893,136.363 105.5,135C 104.167,134.333 102.833,134.333 101.5,135C 104.756,137.777 108.089,140.277 111.5,142.5C 105.729,140.717 100.729,137.717 96.5,133.5 Z"/></g>
<g><path style="opacity:1" fill="#3b83db" d="M 153.5,134.5 C 155.857,134.337 158.19,134.503 160.5,135C 158.178,136.924 155.511,138.257 152.5,139C 154.437,139.122 155.77,139.955 156.5,141.5C 154.304,141.59 152.137,141.923 150,142.5C 147.809,141.478 145.642,140.478 143.5,139.5C 142.5,139.5 141.5,139.5 140.5,139.5C 140.611,138.883 140.944,138.383 141.5,138C 140.09,137.632 139.09,136.799 138.5,135.5C 143.456,134.506 148.456,134.173 153.5,134.5 Z"/></g>
<g><path style="opacity:1" fill="#5ca4df" d="M 151.5,128.5 C 152.833,129.5 154.167,130.5 155.5,131.5C 155.611,132.117 155.944,132.617 156.5,133C 160.688,133.176 164.688,133.676 168.5,134.5C 165.129,137.854 161.129,140.187 156.5,141.5C 155.77,139.955 154.437,139.122 152.5,139C 155.511,138.257 158.178,136.924 160.5,135C 158.19,134.503 155.857,134.337 153.5,134.5C 152.791,133.596 151.791,133.263 150.5,133.5C 151.461,131.562 150.795,130.062 148.5,129C 149.448,128.517 150.448,128.351 151.5,128.5 Z"/></g>
<g><path style="opacity:1" fill="#77777b" d="M 69.5,149.5 C 67.9582,148.699 66.2915,148.366 64.5,148.5C 67.8333,143.167 71.1667,137.833 74.5,132.5C 76.1697,130.075 78.1697,129.909 80.5,132C 76.1704,137.509 72.5038,143.343 69.5,149.5 Z"/></g>
<g><path style="opacity:1" fill="#2869d5" d="M 123.5,143.5 C 121.597,143.796 119.93,144.463 118.5,145.5C 115.982,144.736 113.649,143.736 111.5,142.5C 108.089,140.277 104.756,137.777 101.5,135C 102.833,134.333 104.167,134.333 105.5,135C 106.893,136.363 108.559,137.196 110.5,137.5C 114.054,138.08 117.554,137.414 121,135.5C 122.882,135.688 124.048,136.688 124.5,138.5C 123.954,140.135 123.62,141.801 123.5,143.5 Z"/></g>
<g><path style="opacity:1" fill="#adc3ce" d="M 133.5,133.5 C 136.833,133.5 140.167,133.5 143.5,133.5C 145.833,133.5 148.167,133.5 150.5,133.5C 151.791,133.263 152.791,133.596 153.5,134.5C 148.456,134.173 143.456,134.506 138.5,135.5C 139.09,136.799 140.09,137.632 141.5,138C 140.944,138.383 140.611,138.883 140.5,139.5C 138.171,140.749 136.338,140.082 135,137.5C 133.4,139.581 131.566,140.248 129.5,139.5C 130.5,138.167 131.5,136.833 132.5,135.5C 133.338,135.158 133.672,134.492 133.5,133.5 Z"/></g>
<g><path style="opacity:1" fill="#a4a49f" d="M 195.5,132.5 C 198.248,137.666 201.248,142.666 204.5,147.5C 201.68,147.087 199.68,148.087 198.5,150.5C 198.167,150.5 197.833,150.5 197.5,150.5C 195.476,144.788 192.643,139.455 189,134.5C 186.519,132.686 183.685,132.02 180.5,132.5C 184.339,131.707 188.339,131.04 192.5,130.5C 193.739,130.942 194.739,131.609 195.5,132.5 Z"/></g>
<g><path style="opacity:1" fill="#447abd" d="M 143.5,139.5 C 145.642,140.478 147.809,141.478 150,142.5C 152.137,141.923 154.304,141.59 156.5,141.5C 154.491,143.065 152.157,144.065 149.5,144.5C 146.199,144.208 144.199,142.541 143.5,139.5 Z"/></g>
<g><path style="opacity:1" fill="#394354" d="M 140.5,139.5 C 141.5,139.5 142.5,139.5 143.5,139.5C 144.199,142.541 146.199,144.208 149.5,144.5C 149.833,145.167 150.167,145.833 150.5,146.5C 149.209,146.263 148.209,146.596 147.5,147.5C 146.609,146.89 145.609,146.557 144.5,146.5C 142.852,145.19 141.186,143.857 139.5,142.5C 137.971,143.763 136.305,144.763 134.5,145.5C 134.672,144.508 134.338,143.842 133.5,143.5C 133.134,142.305 132.301,141.639 131,141.5C 129.699,143.155 128.199,144.489 126.5,145.5C 125.833,145.5 125.167,145.5 124.5,145.5C 122.833,145.5 121.167,145.5 119.5,145.5C 119.167,145.5 118.833,145.5 118.5,145.5C 119.93,144.463 121.597,143.796 123.5,143.5C 125.104,142.713 125.771,141.38 125.5,139.5C 126.833,139.5 128.167,139.5 129.5,139.5C 131.566,140.248 133.4,139.581 135,137.5C 136.338,140.082 138.171,140.749 140.5,139.5 Z"/></g>
<g><path style="opacity:1" fill="#344f8c" d="M 133.5,143.5 C 129.817,147.18 125.817,150.514 121.5,153.5C 120.833,153.5 120.167,153.5 119.5,153.5C 121.833,150.833 124.167,148.167 126.5,145.5C 128.199,144.489 129.699,143.155 131,141.5C 132.301,141.639 133.134,142.305 133.5,143.5 Z"/></g>
<g><path style="opacity:1" fill="#486096" d="M 144.5,146.5 C 146.127,148.63 147.96,150.63 150,152.5C 150.692,153.437 150.525,154.103 149.5,154.5C 146.101,152.612 143.101,150.112 140.5,147C 139.563,146.308 138.897,146.475 138.5,147.5C 136.5,147.5 134.5,147.5 132.5,147.5C 132.833,146.5 133.5,145.833 134.5,145.5C 136.305,144.763 137.971,143.763 139.5,142.5C 141.186,143.857 142.852,145.19 144.5,146.5 Z"/></g>
<g><path style="opacity:1" fill="#927c46" d="M 204.5,147.5 C 206.415,147.216 208.081,147.549 209.5,148.5C 206.813,148.336 204.146,148.503 201.5,149C 200.663,150.011 200.33,151.178 200.5,152.5C 198.797,153.66 198.131,152.993 198.5,150.5C 199.68,148.087 201.68,147.087 204.5,147.5 Z"/></g>
<g><path style="opacity:1" fill="#fdfdfc" d="M 132.5,147.5 C 134.5,147.5 136.5,147.5 138.5,147.5C 146.636,155.639 155.636,162.639 165.5,168.5C 175.321,175.744 185.987,181.411 197.5,185.5C 155.5,185.5 113.5,185.5 71.5,185.5C 72.5676,184.566 73.901,184.232 75.5,184.5C 81.543,182.599 87.2097,179.932 92.5,176.5C 106.952,168.381 120.286,158.715 132.5,147.5 Z"/></g>
<g><path style="opacity:1" fill="#d6af52" d="M 209.5,148.5 C 210.804,152.36 211.471,156.36 211.5,160.5C 211.5,161.833 211.5,163.167 211.5,164.5C 209.379,164.675 207.379,164.341 205.5,163.5C 205.5,163.167 205.5,162.833 205.5,162.5C 207.117,163.038 208.784,163.371 210.5,163.5C 210.125,159.129 209.459,154.796 208.5,150.5C 206.79,151.687 205.29,151.354 204,149.5C 202.251,149.748 201.418,150.748 201.5,152.5C 201.167,152.5 200.833,152.5 200.5,152.5C 200.33,151.178 200.663,150.011 201.5,149C 204.146,148.503 206.813,148.336 209.5,148.5 Z"/></g>
<g><path style="opacity:1" fill="#282120" d="M 144.5,146.5 C 145.609,146.557 146.609,146.89 147.5,147.5C 159.631,156.103 171.964,164.603 184.5,173C 182.776,173.448 182.109,174.282 182.5,175.5C 176.278,172.471 170.445,168.805 165,164.5C 164.617,165.056 164.117,165.389 163.5,165.5C 158.235,162.565 153.568,158.899 149.5,154.5C 150.525,154.103 150.692,153.437 150,152.5C 147.96,150.63 146.127,148.63 144.5,146.5 Z"/></g>
<g><path style="opacity:1" fill="#f6d23d" d="M 205.5,162.5 C 204.736,159.982 203.736,157.649 202.5,155.5C 201.89,154.609 201.557,153.609 201.5,152.5C 201.418,150.748 202.251,149.748 204,149.5C 205.29,151.354 206.79,151.687 208.5,150.5C 209.459,154.796 210.125,159.129 210.5,163.5C 208.784,163.371 207.117,163.038 205.5,162.5 Z"/></g>
<g><path style="opacity:1" fill="#66513c" d="M 60.5,149.5 C 61.5676,148.566 62.901,148.232 64.5,148.5C 66.2915,148.366 67.9582,148.699 69.5,149.5C 69.8417,150.338 70.5084,150.672 71.5,150.5C 73.0981,152.698 74.4314,155.031 75.5,157.5C 72.8236,156.494 70.1569,155.494 67.5,154.5C 68.2341,153.292 68.5674,151.959 68.5,150.5C 66.5,150.167 64.5,149.833 62.5,149.5C 61.8333,149.5 61.1667,149.5 60.5,149.5 Z"/></g>
<g><path style="opacity:1" fill="#5f4629" d="M 209.5,148.5 C 214.614,149.947 217.614,153.28 218.5,158.5C 217.29,158.932 216.29,159.599 215.5,160.5C 215.5,161.5 215.5,162.5 215.5,163.5C 214.5,163.5 213.5,163.5 212.5,163.5C 212.737,162.209 212.404,161.209 211.5,160.5C 211.471,156.36 210.804,152.36 209.5,148.5 Z"/></g>
<g><path style="opacity:1" fill="#513c21" d="M 197.5,150.5 C 197.833,150.5 198.167,150.5 198.5,150.5C 198.131,152.993 198.797,153.66 200.5,152.5C 200.833,152.5 201.167,152.5 201.5,152.5C 201.557,153.609 201.89,154.609 202.5,155.5C 202.517,157.565 202.85,159.565 203.5,161.5C 201.787,160.365 201.12,158.698 201.5,156.5C 200.5,156.5 199.5,156.5 198.5,156.5C 198.5,157.5 198.5,158.5 198.5,159.5C 197.448,159.351 196.448,159.517 195.5,160C 196.171,160.986 196.171,162.153 195.5,163.5C 194.833,163.5 194.167,163.5 193.5,163.5C 192.663,158.364 193.997,154.031 197.5,150.5 Z"/></g>
<g><path style="opacity:1" fill="#896e34" d="M 60.5,149.5 C 59.2786,154.386 58.6119,159.386 58.5,164.5C 57.7281,163.306 56.7281,162.306 55.5,161.5C 55.4606,160.417 55.1272,159.417 54.5,158.5C 56.9256,156.446 58.2589,153.78 58.5,150.5C 58.8417,149.662 59.5084,149.328 60.5,149.5 Z"/></g>
<g><path style="opacity:1" fill="#ddb544" d="M 62.5,149.5 C 64.5,149.833 66.5,150.167 68.5,150.5C 68.5674,151.959 68.2341,153.292 67.5,154.5C 65.5867,157.567 64.2534,160.901 63.5,164.5C 62.8333,164.5 62.1667,164.5 61.5,164.5C 60.8333,164.5 60.1667,164.5 59.5,164.5C 60.8321,163.17 61.6655,161.503 62,159.5C 62.4983,156.183 62.665,152.85 62.5,149.5 Z"/></g>
<g><path style="opacity:1" fill="#877110" d="M 202.5,155.5 C 203.736,157.649 204.736,159.982 205.5,162.5C 204.833,162.167 204.167,161.833 203.5,161.5C 202.85,159.565 202.517,157.565 202.5,155.5 Z"/></g>
<g><path style="opacity:1" fill="#fae455" d="M 60.5,149.5 C 61.1667,149.5 61.8333,149.5 62.5,149.5C 62.665,152.85 62.4983,156.183 62,159.5C 61.6655,161.503 60.8321,163.17 59.5,164.5C 59.1667,164.5 58.8333,164.5 58.5,164.5C 58.6119,159.386 59.2786,154.386 60.5,149.5 Z"/></g>
<g><path style="opacity:1" fill="#545655" d="M 119.5,153.5 C 120.167,153.5 120.833,153.5 121.5,153.5C 112.678,161.654 103.011,168.654 92.5,174.5C 101.612,167.762 110.612,160.762 119.5,153.5 Z"/></g>
<g><path style="opacity:1" fill="#585754" d="M 119.5,145.5 C 121.167,145.5 122.833,145.5 124.5,145.5C 114.928,154.292 104.595,162.125 93.5,169C 83.9998,173.251 74.6665,177.751 65.5,182.5C 66.1925,183.518 66.8592,184.518 67.5,185.5C 66.8333,185.5 66.1667,185.5 65.5,185.5C 62.7823,184.896 60.449,183.563 58.5,181.5C 58.81,180.262 59.31,180.262 60,181.5C 60.4643,180.906 60.631,180.239 60.5,179.5C 62.8543,180.494 63.8543,179.494 63.5,176.5C 66.0728,177.555 68.7395,177.722 71.5,177C 89.5284,169.45 105.528,158.95 119.5,145.5 Z"/></g>
<g><path style="opacity:1" fill="#564b24" d="M 58.5,150.5 C 58.2589,153.78 56.9256,156.446 54.5,158.5C 55.1272,159.417 55.4606,160.417 55.5,161.5C 54.7377,163.262 53.4044,164.262 51.5,164.5C 51.1667,164.5 50.8333,164.5 50.5,164.5C 50.1071,157.939 52.7738,153.272 58.5,150.5 Z"/></g>
<g><path style="opacity:1" fill="#8b9193" d="M 149.5,154.5 C 153.568,158.899 158.235,162.565 163.5,165.5C 164.167,166.5 164.833,167.5 165.5,168.5C 155.636,162.639 146.636,155.639 138.5,147.5C 138.897,146.475 139.563,146.308 140.5,147C 143.101,150.112 146.101,152.612 149.5,154.5 Z"/></g>
<g><path style="opacity:1" fill="#371e1b" d="M 203.5,161.5 C 204.167,161.833 204.833,162.167 205.5,162.5C 205.5,162.833 205.5,163.167 205.5,163.5C 204.082,165.308 202.082,165.975 199.5,165.5C 199.483,163.435 199.15,161.435 198.5,159.5C 198.5,158.5 198.5,157.5 198.5,156.5C 199.5,156.5 200.5,156.5 201.5,156.5C 201.12,158.698 201.787,160.365 203.5,161.5 Z"/></g>
<g><path style="opacity:1" fill="#583b12" d="M 67.5,154.5 C 70.1569,155.494 72.8236,156.494 75.5,157.5C 76.8333,159.833 76.8333,162.167 75.5,164.5C 75.5,163.833 75.5,163.167 75.5,162.5C 75.5,161.5 75.5,160.5 75.5,159.5C 73.0401,159.699 70.7067,160.365 68.5,161.5C 71.2194,164.189 70.7194,166.189 67,167.5C 65.6362,166.629 64.4695,165.629 63.5,164.5C 64.2534,160.901 65.5867,157.567 67.5,154.5 Z"/></g>
<g><path style="opacity:1" fill="#58260a" d="M 55.5,161.5 C 56.7281,162.306 57.7281,163.306 58.5,164.5C 58.8333,164.5 59.1667,164.5 59.5,164.5C 60.1667,164.5 60.8333,164.5 61.5,164.5C 61.5,164.833 61.5,165.167 61.5,165.5C 59.0052,166.199 56.6719,167.199 54.5,168.5C 53.5,167.167 52.5,165.833 51.5,164.5C 53.4044,164.262 54.7377,163.262 55.5,161.5 Z"/></g>
<g><path style="opacity:1" fill="#915e05" d="M 75.5,162.5 C 72.7638,166.872 68.7638,169.206 63.5,169.5C 63.2671,167.938 62.6005,166.605 61.5,165.5C 61.5,165.167 61.5,164.833 61.5,164.5C 62.1667,164.5 62.8333,164.5 63.5,164.5C 64.4695,165.629 65.6362,166.629 67,167.5C 70.7194,166.189 71.2194,164.189 68.5,161.5C 70.7067,160.365 73.0401,159.699 75.5,159.5C 75.5,160.5 75.5,161.5 75.5,162.5 Z"/></g>
<g><path style="opacity:1" fill="#5e3004" d="M 198.5,159.5 C 199.15,161.435 199.483,163.435 199.5,165.5C 202.082,165.975 204.082,165.308 205.5,163.5C 207.379,164.341 209.379,164.675 211.5,164.5C 211.5,163.167 211.5,161.833 211.5,160.5C 212.404,161.209 212.737,162.209 212.5,163.5C 213.5,163.5 214.5,163.5 215.5,163.5C 215.5,162.5 215.5,161.5 215.5,160.5C 218.124,162.198 218.124,164.031 215.5,166C 213.473,166.498 211.473,166.331 209.5,165.5C 208.287,165.747 207.62,166.414 207.5,167.5C 203.915,167.848 200.582,167.181 197.5,165.5C 196.833,164.833 196.167,164.167 195.5,163.5C 196.171,162.153 196.171,160.986 195.5,160C 196.448,159.517 197.448,159.351 198.5,159.5 Z"/></g>
<g><path style="opacity:1" fill="#ac893a" d="M 193.5,163.5 C 194.167,163.5 194.833,163.5 195.5,163.5C 196.167,164.167 196.833,164.833 197.5,165.5C 198.471,167.483 199.471,169.483 200.5,171.5C 196.76,170.092 194.427,167.425 193.5,163.5 Z"/></g>
<g><path style="opacity:1" fill="#b79237" d="M 218.5,158.5 C 219.124,158.917 219.457,159.584 219.5,160.5C 218.315,165.309 216.315,169.642 213.5,173.5C 213.167,173.5 212.833,173.5 212.5,173.5C 212.208,170.199 210.541,168.199 207.5,167.5C 207.62,166.414 208.287,165.747 209.5,165.5C 211.473,166.331 213.473,166.498 215.5,166C 218.124,164.031 218.124,162.198 215.5,160.5C 216.29,159.599 217.29,158.932 218.5,158.5 Z"/></g>
<g><path style="opacity:1" fill="#b28f5b" d="M 50.5,164.5 C 50.8333,164.5 51.1667,164.5 51.5,164.5C 52.5,165.833 53.5,167.167 54.5,168.5C 54.5,169.5 54.5,170.5 54.5,171.5C 52.412,169.664 51.0787,167.331 50.5,164.5 Z"/></g>
<g><path style="opacity:1" fill="#c09737" d="M 61.5,165.5 C 62.6005,166.605 63.2671,167.938 63.5,169.5C 63.5,170.833 63.5,172.167 63.5,173.5C 64.8333,173.5 66.1667,173.5 67.5,173.5C 66.4324,174.434 65.099,174.768 63.5,174.5C 61.9642,172.975 60.9642,170.975 60.5,168.5C 59.0815,169.005 58.4148,170.005 58.5,171.5C 57.5,171.5 56.5,171.5 55.5,171.5C 55.1667,171.5 54.8333,171.5 54.5,171.5C 54.5,170.5 54.5,169.5 54.5,168.5C 56.6719,167.199 59.0052,166.199 61.5,165.5 Z"/></g>
<g><path style="opacity:1" fill="#a9adae" d="M 133.5,143.5 C 134.338,143.842 134.672,144.508 134.5,145.5C 133.5,145.833 132.833,146.5 132.5,147.5C 120.286,158.715 106.952,168.381 92.5,176.5C 92.5,175.833 92.5,175.167 92.5,174.5C 103.011,168.654 112.678,161.654 121.5,153.5C 125.817,150.514 129.817,147.18 133.5,143.5 Z"/></g>
<g><path style="opacity:1" fill="#292725" d="M 124.5,145.5 C 125.167,145.5 125.833,145.5 126.5,145.5C 124.167,148.167 121.833,150.833 119.5,153.5C 110.612,160.762 101.612,167.762 92.5,174.5C 84.3493,177.828 76.016,180.661 67.5,183C 69.5675,183.687 71.5675,183.52 73.5,182.5C 74.5223,182.855 75.189,183.522 75.5,184.5C 73.901,184.232 72.5676,184.566 71.5,185.5C 70.1667,185.5 68.8333,185.5 67.5,185.5C 66.8592,184.518 66.1925,183.518 65.5,182.5C 74.6665,177.751 83.9998,173.251 93.5,169C 104.595,162.125 114.928,154.292 124.5,145.5 Z"/></g>
<g><path style="opacity:1" fill="#e2bc33" d="M 75.5,162.5 C 75.5,163.167 75.5,163.833 75.5,164.5C 74.9527,169.381 72.2861,172.381 67.5,173.5C 66.1667,173.5 64.8333,173.5 63.5,173.5C 63.5,172.167 63.5,170.833 63.5,169.5C 68.7638,169.206 72.7638,166.872 75.5,162.5 Z"/></g>
<g><path style="opacity:1" fill="#d6a323" d="M 197.5,165.5 C 200.582,167.181 203.915,167.848 207.5,167.5C 207.795,169.735 207.461,171.735 206.5,173.5C 204.214,173.405 202.214,172.738 200.5,171.5C 199.471,169.483 198.471,167.483 197.5,165.5 Z"/></g>
<g><path style="opacity:1" fill="#372b16" d="M 63.5,174.5 C 63.5,175.167 63.5,175.833 63.5,176.5C 63.8543,179.494 62.8543,180.494 60.5,179.5C 58.5463,177.021 57.8797,174.354 58.5,171.5C 58.4148,170.005 59.0815,169.005 60.5,168.5C 60.9642,170.975 61.9642,172.975 63.5,174.5 Z"/></g>
<g><path style="opacity:1" fill="#9d9288" d="M 212.5,173.5 C 212.833,173.5 213.167,173.5 213.5,173.5C 213.829,176.228 213.163,178.562 211.5,180.5C 211.389,179.883 211.056,179.383 210.5,179C 211.861,177.416 212.528,175.582 212.5,173.5 Z"/></g>
<g><path style="opacity:1" fill="#b7ae98" d="M 55.5,171.5 C 56.5,171.5 57.5,171.5 58.5,171.5C 57.8797,174.354 58.5463,177.021 60.5,179.5C 60.631,180.239 60.4643,180.906 60,181.5C 59.31,180.262 58.81,180.262 58.5,181.5C 56.0237,178.712 55.0237,175.378 55.5,171.5 Z"/></g>
<g><path style="opacity:1" fill="#605948" d="M 92.5,174.5 C 92.5,175.167 92.5,175.833 92.5,176.5C 87.2097,179.932 81.543,182.599 75.5,184.5C 75.189,183.522 74.5223,182.855 73.5,182.5C 71.5675,183.52 69.5675,183.687 67.5,183C 76.016,180.661 84.3493,177.828 92.5,174.5 Z"/></g>
<g><path style="opacity:1" fill="#372e27" d="M 147.5,147.5 C 148.209,146.596 149.209,146.263 150.5,146.5C 161.84,156.666 174.173,165.499 187.5,173C 192.286,175.206 197.286,176.706 202.5,177.5C 205.512,177.821 206.845,176.488 206.5,173.5C 207.461,171.735 207.795,169.735 207.5,167.5C 210.541,168.199 212.208,170.199 212.5,173.5C 212.528,175.582 211.861,177.416 210.5,179C 211.056,179.383 211.389,179.883 211.5,180.5C 209.66,182.914 207.327,184.581 204.5,185.5C 202.167,185.5 199.833,185.5 197.5,185.5C 185.987,181.411 175.321,175.744 165.5,168.5C 164.833,167.5 164.167,166.5 163.5,165.5C 164.117,165.389 164.617,165.056 165,164.5C 170.445,168.805 176.278,172.471 182.5,175.5C 182.109,174.282 182.776,173.448 184.5,173C 171.964,164.603 159.631,156.103 147.5,147.5 Z"/></g>
</svg>
